<?xml version="1.0" encoding="UTF-8"?>
<svg width="69px" height="69px" viewBox="0 0 69 69" version="1.1" xmlns="http://www.w3.org/2000/svg" xmlns:xlink="http://www.w3.org/1999/xlink">
    <!-- Generator: Sketch 49.3 (51167) - http://www.bohemiancoding.com/sketch -->
    <title>logo-TDS</title>
    <desc>Created with Sketch.</desc>
    <defs>
        <linearGradient x1="3.61244019%" y1="86.8038278%" x2="97.1100478%" y2="12.6220096%" id="linearGradient-1">
            <stop stop-color="#F10252" offset="0%"></stop>
            <stop stop-color="#FF4A00" offset="100%"></stop>
        </linearGradient>
    </defs>
    <g id="Welcome" stroke="none" stroke-width="1" fill="none" fill-rule="evenodd">
        <g id="Homepage" transform="translate(-40.000000, -33.000000)" fill-rule="nonzero">
            <g id="logo-TDS" transform="translate(40.000000, 33.000000)">
                <g id="Layer_2" fill="url(#linearGradient-1)">
                    <rect id="Rectangle-path" x="0" y="0" width="69" height="69" rx="6"></rect>
                </g>
                <g id="Layer_3" transform="translate(12.000000, 31.000000)" fill="#FFFFFF">
                    <polygon id="Shape" points="8.77 4.84333333 8.77 19.24 3.97333333 19.24 3.97333333 4.84333333 0.0366666667 4.84333333 0.0366666667 0.78 12.7033333 0.78 12.7033333 4.84333333"></polygon>
                    <path d="M15.3333333,0.779842626 L22.4333333,0.78 C23.6531688,0.772534898 24.860005,1.03073644 25.97,1.53666667 C27.0493669,2.02653211 28.0290968,2.711326 28.86,3.55666667 C29.6884678,4.40515097 30.3489667,5.40268526 30.8066667,6.49666667 C31.2776443,7.60446654 31.5191744,8.79624164 31.5166667,10 C31.5181701,11.1969423 31.2813441,12.3822053 30.82,13.4866667 C30.368854,14.584705 29.7114398,15.5861018 28.8833333,16.4366667 C28.0562183,17.2883971 27.0771837,17.9780173 25.9966667,18.47 C24.8784562,18.9799518 23.6622997,19.2393379 22.4333333,19.23 L15.3333333,19.23 L15.3333333,0.779842626 Z M20.13,15.1766667 L21.2333333,15.1766667 C21.9938283,15.1885125 22.7495884,15.05501 23.46,14.7833333 C24.0851093,14.5456843 24.6530364,14.1788034 25.1266667,13.7066667 C25.5815359,13.2423886 25.9326144,12.6867984 26.1566667,12.0766667 C26.398798,11.414905 26.5185249,10.7146158 26.51,10.01 C26.5170762,9.3075796 26.392716,8.61003174 26.1433333,7.95333333 C25.91488,7.34009649 25.5606203,6.78145616 25.1033333,6.31333333 C24.6289559,5.84131293 24.0613025,5.47347349 23.4366667,5.23333333 C22.7337569,4.96421704 21.9859114,4.83184498 21.2333333,4.84333333 L20.13,4.84333333 L20.13,15.1766667 Z" id="Shape"></path>
                    <path d="M43.2433333,5.50333333 C42.7726259,5.11033924 42.2442125,4.79216692 41.6766667,4.56 C41.1944729,4.36511938 40.6800561,4.26223602 40.16,4.25666667 C39.6188503,4.23317137 39.0849195,4.3877303 38.64,4.69666667 C38.2652273,4.95846184 38.0452937,5.38958169 38.0533333,5.84666667 C38.0433384,6.14333596 38.148445,6.43237914 38.3466667,6.65333333 C38.567832,6.8842172 38.8300864,7.07186473 39.12,7.20666667 C39.4664863,7.37214306 39.826739,7.5070984 40.1966667,7.61 C40.5966667,7.72333333 40.9933333,7.84666667 41.3833333,7.97666667 C42.95,8.49888889 44.0966667,9.19666667 44.8233333,10.07 C45.55,10.9433333 45.9133333,12.0822222 45.9133333,13.4866667 C45.9255849,14.366394 45.7635828,15.2398459 45.4366667,16.0566667 C45.126611,16.8107971 44.6489952,17.4844748 44.04,18.0266667 C43.3830683,18.5996085 42.6163958,19.0328464 41.7866667,19.3 C40.8106552,19.6162546 39.7891776,19.7694199 38.7633333,19.7533333 C36.4360263,19.7537133 34.1672548,19.0238824 32.2766667,17.6666667 L34.3333333,13.7966667 C34.9654941,14.3774723 35.6840663,14.8565204 36.4633333,15.2166667 C37.11615,15.5167174 37.8249029,15.6757325 38.5433333,15.6833333 C39.1742361,15.7335464 39.8004244,15.5403226 40.2933333,15.1433333 C40.6529263,14.8377579 40.8631258,14.3918434 40.87,13.92 C40.8751103,13.671018 40.8250224,13.4239935 40.7233333,13.1966667 C40.605886,12.9734376 40.4381343,12.7805802 40.2333333,12.6333333 C39.9569493,12.4372444 39.6567671,12.2770726 39.34,12.1566667 C38.9733333,12.01 38.5266667,11.8466667 38.0066667,11.6666667 C37.3866667,11.47 36.78,11.2566667 36.1833333,11.02 C35.6061774,10.7928515 35.0693194,10.4743382 34.5933333,10.0766667 C34.1159961,9.66850708 33.7317931,9.16267778 33.4666667,8.59333333 C33.1567241,7.88145169 33.0098096,7.10929634 33.0366667,6.33333333 C33.0259934,5.482965 33.1799328,4.6385622 33.49,3.84666667 C33.7779148,3.12885854 34.2114777,2.47851423 34.7633333,1.93666667 C35.3365071,1.39033496 36.0178184,0.970193 36.7633333,0.703333333 C37.6181267,0.395618015 38.5216237,0.245411645 39.43,0.26 C40.396539,0.267017137 41.3584213,0.394670907 42.2933333,0.64 C43.2896372,0.892865 44.2512352,1.26675755 45.1566667,1.75333333 L43.2433333,5.50333333 Z" id="Shape"></path>
                </g>
                <g id="Layer_4" transform="translate(12.000000, 18.000000)" fill="#FFFFFF">
                    <polygon id="Shape" points="38.3823529 0.0566666667 38.3823529 5.27666667 32.7441176 5.27666667 32.7441176 0.0566666667 25.25625 0.0566666667 25.25625 5.27666667 19.7834559 5.27666667 19.7834559 0.0566666667 12.2988971 0.0566666667 12.2988971 5.27666667 6.61764706 5.27666667 6.61764706 0.0566666667 0.05625 0.0566666667 0.05625 5.27666667 0.05625 11 6.61764706 11 12.2988971 11 19.7834559 11 25.25625 11 32.7441176 11 38.3823529 11 44.94375 11 44.94375 5.27666667 44.94375 0.0566666667"></polygon>
                </g>
            </g>
        </g>
    </g>
</svg>